<?xml version="1.0" standalone="no"?>
<svg viewBox="0 0 200 200" xmlns="http://www.w3.org/2000/svg">
  <path fill="#5b8cc47c" d="M10.1,-17.3C15.8,-14.2,24.9,-16.9,33.8,-15C42.7,-13.1,51.5,-6.5,51.3,-0.1C51,6.2,41.7,12.5,37.4,22.4C33.1,32.4,33.8,46,28.3,49.4C22.9,52.9,11.5,46.1,1,44.4C-9.5,42.7,-18.9,45.9,-29.3,45.4C-39.7,44.8,-51.1,40.4,-61.4,32.2C-71.8,24,-81.2,12,-74.1,4.1C-67,-3.8,-43.4,-7.6,-30.7,-11.7C-18,-15.9,-16.1,-20.3,-12.8,-24.7C-9.5,-29.1,-4.8,-33.5,-1.3,-31.3C2.2,-29.1,4.4,-20.3,10.1,-17.3Z" transform="translate(100 100)" />
</svg>