<?xml version="1.0" standalone="no"?>

<svg viewBox="0 0 200 200" xmlns="http://www.w3.org/2000/svg">
  <path fill="#c45b5b7c" d="M15.3,-34.5C18.1,-24.9,17.5,-17.3,30,-11.9C42.6,-6.5,68.3,-3.2,74.8,3.8C81.3,10.8,68.7,21.6,57.1,28.7C45.6,35.8,35.2,39.3,25.8,45.7C16.5,52,8.2,61.1,3.5,55C-1.2,48.8,-2.3,27.5,-10.8,20.6C-19.2,13.8,-34.9,21.5,-41.6,20.5C-48.3,19.4,-46.1,9.7,-40.4,3.3C-34.6,-3,-25.2,-6.1,-18.5,-7.2C-11.9,-8.4,-7.9,-7.7,-5.3,-17.4C-2.7,-27.1,-1.3,-47.3,2.5,-51.6C6.2,-55.8,12.5,-44.1,15.3,-34.5Z" transform="translate(100 100)" />
</svg>